<?xml version="1.0" standalone="no"?>
<svg width="1056" height="816" xmlns="http://www.w3.org/2000/svg" id="svgvm2"><g transform="translate(5,5)" style="font-family: sans-serif;"><g><g transform="translate(0, 0)"><g transform="translate(0,5)"><rect class="header-box" width="336.8474576271186" height="86" stroke="black" fill="white" rx="5"/><rect class="label-cover" x="8" y="-10" width="34.6953125" height="18" fill="white" rx="5"/><text class="header-box-label" x="10" font-size="12" fill="black" y="3">about</text><g class="header-box-content" fill="black" transform="translate(5, 0)"><g transform="translate(0, 2.0975609756097526)"><text font-size="12"><tspan x="4" y="23.426829268292682">WineLoader</tspan></text><line x1="0" x2="326.8474576271186" y1="39.853658536585364" y2="39.853658536585364" stroke="#dddddd"/></g><g transform="translate(0, 44.048780487804876)"><text font-size="5.503914447134786"><tspan x="4" y="8.475609756097562">Zscaler ThreatLabz discovered a suspicious PDF file through our intelligence sources</tspan><tspan x="4" y="21.426829268292682">on January 30th, 2024. This PDF file is masqueraded as an invitation letter from the</tspan><tspan x="4" y="34.3780487804878">Ambassador of India, inviting diplomats to a wine-tasting event in February 2024.</tspan></text></g></g></g></g><g transform="translate(354.57627118644064, 0)"><g transform="translate(0,5)"><rect class="header-box" width="336.8474576271186" height="86" stroke="black" fill="white" rx="5"/><rect class="label-cover" x="8" y="-10" width="43.68359375" height="18" fill="white" rx="5"/><text class="header-box-label" x="10" font-size="12" fill="black" y="3">domain</text><g class="header-box-content" fill="black" transform="translate(5, 0)"><g transform="translate(0, 4.095238095238102)"><text font-size="12"><tspan x="4" y="42.4047619047619">Enterprise ATT&amp;CK v18</tspan></text></g></g></g></g><g transform="translate(709.1525423728813, 0)"><g transform="translate(0,5)"><rect class="header-box" width="336.8474576271186" height="86" stroke="black" fill="white" rx="5"/><rect class="label-cover" x="8" y="-10" width="53.359375" height="18" fill="white" rx="5"/><text class="header-box-label" x="10" font-size="12" fill="black" y="3">platforms</text><g class="header-box-content" fill="black" transform="translate(5, 0)"><g transform="translate(0, 4.095238095238102)"><text font-size="12"><tspan x="4" y="27.73809523809523">Identity Provider, Windows, Network</tspan><tspan x="4" y="42.4047619047619">Devices, Linux, macOS, ESXi, PRE,</tspan><tspan x="4" y="57.07142857142856">Containers, IaaS, Office Suite, SaaS</tspan></text></g></g></g></g></g><g transform="translate(0,97)"><g><g class="tactic resource-development" transform="translate(0, 0)"><g class="techniques"><g class="technique T1584" transform="translate(0, 47.333333333333336)"><rect class="cell" height="47.333333333333336" width="130.75" fill="#e60d0d" stroke="#6B7279"/><polygon class="sidebar" transform="translate(0, 47.333333333333336)" points="0,0 12,0 12,0" fill="#6B7279" visibility="hidden"/><text font-size="9.888194444444444" fill="white"><tspan x="4" y="19.916666666666668">Compromise</tspan><tspan x="4" y="34.41666666666667">Infrastructure</tspan></text></g></g><g class="subtechniques"/><g class="tactic-label"><text font-size="12" fill="black" font-weight="bold"><tspan text-anchor="middle" x="65.375" y="19.916666666666668">Resource</tspan><tspan text-anchor="middle" x="65.375" y="34.41666666666667">Development</tspan></text></g></g><g class="tactic execution" transform="translate(130.75, 0)"><g class="techniques"><g class="technique T1053" transform="translate(0, 47.333333333333336)"><rect class="cell" height="47.333333333333336" width="130.75" fill="#e60d0d" stroke="#6B7279"/><polygon class="sidebar" transform="translate(0, 47.333333333333336)" points="0,0 12,0 12,12" fill="#6B7279" visibility="visible"/><text font-size="9.888194444444444" fill="white"><tspan x="4" y="19.916666666666668">Scheduled</tspan><tspan x="4" y="34.41666666666667">Task/Job</tspan></text></g><g class="technique T1204" transform="translate(0, 142)"><rect class="cell" height="47.333333333333336" width="130.75" fill="#e60d0d" stroke="#6B7279"/><polygon class="sidebar" transform="translate(0, 47.333333333333336)" points="0,0 12,0 12,12" fill="#6B7279" visibility="visible"/><text font-size="9.888194444444444" fill="white"><tspan x="4" y="27.166666666666668">User Execution</tspan></text></g></g><g class="subtechniques"><g class="subtechnique T1053.005" transform="translate(15, 94.66666666666667)"><rect class="cell" height="47.333333333333336" width="115.75" fill="#fdd0a2" stroke="#6B7279"/><rect class="cell" height="47.333333333333336" width="3" transform="translate(-3, 0)" fill="#6B7279" stroke="#6B7279"/><text font-size="9.888194444444444" fill="black"><tspan x="4" y="19.916666666666668">Scheduled</tspan><tspan x="4" y="34.41666666666667">Task</tspan></text></g><g class="subtechnique T1204.002" transform="translate(15, 189.33333333333334)"><rect class="cell" height="47.333333333333336" width="115.75" fill="#fdd0a2" stroke="#6B7279"/><rect class="cell" height="47.333333333333336" width="3" transform="translate(-3, 0)" fill="#6B7279" stroke="#6B7279"/><text font-size="9.888194444444444" fill="black"><tspan x="4" y="19.916666666666668">Malicious</tspan><tspan x="4" y="34.41666666666667">File</tspan></text></g><g class="subtechnique T1204.001" transform="translate(15, 236.66666666666666)"><rect class="cell" height="47.333333333333336" width="115.75" fill="#fdd0a2" stroke="#6B7279"/><rect class="cell" height="47.333333333333336" width="3" transform="translate(-3, 0)" fill="#6B7279" stroke="#6B7279"/><text font-size="9.888194444444444" fill="black"><tspan x="4" y="19.916666666666668">Malicious</tspan><tspan x="4" y="34.41666666666667">Link</tspan></text></g></g><g class="tactic-label"><text font-size="12" fill="black" font-weight="bold"><tspan text-anchor="middle" x="65.375" y="27.166666666666668">Execution</tspan></text></g></g><g class="tactic persistence" transform="translate(261.5, 0)"><g class="techniques"><g class="technique T1547" transform="translate(0, 47.333333333333336)"><rect class="cell" height="47.333333333333336" width="130.75" fill="#e60d0d" stroke="#6B7279"/><polygon class="sidebar" transform="translate(0, 47.333333333333336)" points="0,0 12,0 12,12" fill="#6B7279" visibility="visible"/><text font-size="9.888194444444444" fill="white"><tspan x="4" y="12.5">Boot or Logon</tspan><tspan x="4" y="27.166666666666668">Autostart</tspan><tspan x="4" y="41.83333333333333">Execution</tspan></text></g><g class="technique T1574" transform="translate(0, 142)"><rect class="cell" height="47.333333333333336" width="130.75" fill="#e60d0d" stroke="#6B7279"/><polygon class="sidebar" transform="translate(0, 47.333333333333336)" points="0,0 12,0 12,12" fill="#6B7279" visibility="visible"/><text font-size="9.888194444444444" fill="white"><tspan x="4" y="19.916666666666668">Hijack</tspan><tspan x="4" y="34.41666666666667">Execution Flow</tspan></text></g><g class="technique T1053" transform="translate(0, 236.66666666666666)"><rect class="cell" height="47.333333333333336" width="130.75" fill="#e60d0d" stroke="#6B7279"/><polygon class="sidebar" transform="translate(0, 47.333333333333336)" points="0,0 12,0 12,12" fill="#6B7279" visibility="visible"/><text font-size="9.888194444444444" fill="white"><tspan x="4" y="19.916666666666668">Scheduled</tspan><tspan x="4" y="34.41666666666667">Task/Job</tspan></text></g></g><g class="subtechniques"><g class="subtechnique T1547.001" transform="translate(15, 94.66666666666667)"><rect class="cell" height="47.333333333333336" width="115.75" fill="#fdd0a2" stroke="#6B7279"/><rect class="cell" height="47.333333333333336" width="3" transform="translate(-3, 0)" fill="#6B7279" stroke="#6B7279"/><text font-size="9.888194444444444" fill="black"><tspan x="4" y="12.5">Registry</tspan><tspan x="4" y="27.166666666666668">Run Keys /</tspan><tspan x="4" y="41.83333333333333">Startup Folder</tspan></text></g><g class="subtechnique T1574.001" transform="translate(15, 189.33333333333334)"><rect class="cell" height="47.333333333333336" width="115.75" fill="#fdd0a2" stroke="#6B7279"/><rect class="cell" height="47.333333333333336" width="3" transform="translate(-3, 0)" fill="#6B7279" stroke="#6B7279"/><text font-size="9.888194444444444" fill="black"><tspan x="4" y="27.166666666666668">DLL</tspan></text></g><g class="subtechnique T1053.005" transform="translate(15, 284)"><rect class="cell" height="47.333333333333336" width="115.75" fill="#fdd0a2" stroke="#6B7279"/><rect class="cell" height="47.333333333333336" width="3" transform="translate(-3, 0)" fill="#6B7279" stroke="#6B7279"/><text font-size="9.888194444444444" fill="black"><tspan x="4" y="19.916666666666668">Scheduled</tspan><tspan x="4" y="34.41666666666667">Task</tspan></text></g></g><g class="tactic-label"><text font-size="12" fill="black" font-weight="bold"><tspan text-anchor="middle" x="65.375" y="27.166666666666668">Persistence</tspan></text></g></g><g class="tactic privilege-escalation" transform="translate(392.25, 0)"><g class="techniques"><g class="technique T1547" transform="translate(0, 47.333333333333336)"><rect class="cell" height="47.333333333333336" width="130.75" fill="#e60d0d" stroke="#6B7279"/><polygon class="sidebar" transform="translate(0, 47.333333333333336)" points="0,0 12,0 12,12" fill="#6B7279" visibility="visible"/><text font-size="9.888194444444444" fill="white"><tspan x="4" y="12.5">Boot or Logon</tspan><tspan x="4" y="27.166666666666668">Autostart</tspan><tspan x="4" y="41.83333333333333">Execution</tspan></text></g><g class="technique T1574" transform="translate(0, 142)"><rect class="cell" height="47.333333333333336" width="130.75" fill="#e60d0d" stroke="#6B7279"/><polygon class="sidebar" transform="translate(0, 47.333333333333336)" points="0,0 12,0 12,12" fill="#6B7279" visibility="visible"/><text font-size="9.888194444444444" fill="white"><tspan x="4" y="19.916666666666668">Hijack</tspan><tspan x="4" y="34.41666666666667">Execution Flow</tspan></text></g><g class="technique T1055" transform="translate(0, 236.66666666666666)"><rect class="cell" height="47.333333333333336" width="130.75" fill="#e60d0d" stroke="#6B7279"/><polygon class="sidebar" transform="translate(0, 47.333333333333336)" points="0,0 12,0 12,12" fill="#6B7279" visibility="visible"/><text font-size="9.888194444444444" fill="white"><tspan x="4" y="19.916666666666668">Process</tspan><tspan x="4" y="34.41666666666667">Injection</tspan></text></g><g class="technique T1053" transform="translate(0, 331.3333333333333)"><rect class="cell" height="47.333333333333336" width="130.75" fill="#e60d0d" stroke="#6B7279"/><polygon class="sidebar" transform="translate(0, 47.333333333333336)" points="0,0 12,0 12,12" fill="#6B7279" visibility="visible"/><text font-size="9.888194444444444" fill="white"><tspan x="4" y="19.916666666666668">Scheduled</tspan><tspan x="4" y="34.41666666666667">Task/Job</tspan></text></g></g><g class="subtechniques"><g class="subtechnique T1547.001" transform="translate(15, 94.66666666666667)"><rect class="cell" height="47.333333333333336" width="115.75" fill="#fdd0a2" stroke="#6B7279"/><rect class="cell" height="47.333333333333336" width="3" transform="translate(-3, 0)" fill="#6B7279" stroke="#6B7279"/><text font-size="9.888194444444444" fill="black"><tspan x="4" y="12.5">Registry</tspan><tspan x="4" y="27.166666666666668">Run Keys /</tspan><tspan x="4" y="41.83333333333333">Startup Folder</tspan></text></g><g class="subtechnique T1574.001" transform="translate(15, 189.33333333333334)"><rect class="cell" height="47.333333333333336" width="115.75" fill="#fdd0a2" stroke="#6B7279"/><rect class="cell" height="47.333333333333336" width="3" transform="translate(-3, 0)" fill="#6B7279" stroke="#6B7279"/><text font-size="9.888194444444444" fill="black"><tspan x="4" y="27.166666666666668">DLL</tspan></text></g><g class="subtechnique T1055.001" transform="translate(15, 284)"><rect class="cell" height="47.333333333333336" width="115.75" fill="#fdd0a2" stroke="#6B7279"/><rect class="cell" height="47.333333333333336" width="3" transform="translate(-3, 0)" fill="#6B7279" stroke="#6B7279"/><text font-size="9.888194444444444" fill="black"><tspan x="4" y="12.5">Dynamic-link</tspan><tspan x="4" y="27.166666666666668">Library</tspan><tspan x="4" y="41.83333333333333">Injection</tspan></text></g><g class="subtechnique T1053.005" transform="translate(15, 378.6666666666667)"><rect class="cell" height="47.333333333333336" width="115.75" fill="#fdd0a2" stroke="#6B7279"/><rect class="cell" height="47.333333333333336" width="3" transform="translate(-3, 0)" fill="#6B7279" stroke="#6B7279"/><text font-size="9.888194444444444" fill="black"><tspan x="4" y="19.916666666666668">Scheduled</tspan><tspan x="4" y="34.41666666666667">Task</tspan></text></g></g><g class="tactic-label"><text font-size="12" fill="black" font-weight="bold"><tspan text-anchor="middle" x="65.375" y="19.916666666666668">Privilege</tspan><tspan text-anchor="middle" x="65.375" y="34.41666666666667">Escalation</tspan></text></g></g><g class="tactic defense-evasion" transform="translate(523, 0)"><g class="techniques"><g class="technique T1140" transform="translate(0, 47.333333333333336)"><rect class="cell" height="47.333333333333336" width="130.75" fill="#e60d0d" stroke="#6B7279"/><polygon class="sidebar" transform="translate(0, 47.333333333333336)" points="0,0 12,0 12,0" fill="#6B7279" visibility="hidden"/><text font-size="9.888194444444444" fill="white"><tspan x="4" y="11.5">Deobfuscate/Decode</tspan><tspan x="4" y="26.166666666666668">Files</tspan><tspan x="4" y="40.83333333333333">or Information</tspan></text></g><g class="technique T1574" transform="translate(0, 94.66666666666667)"><rect class="cell" height="47.333333333333336" width="130.75" fill="#e60d0d" stroke="#6B7279"/><polygon class="sidebar" transform="translate(0, 47.333333333333336)" points="0,0 12,0 12,12" fill="#6B7279" visibility="visible"/><text font-size="9.888194444444444" fill="white"><tspan x="4" y="19.916666666666668">Hijack</tspan><tspan x="4" y="34.41666666666667">Execution Flow</tspan></text></g><g class="technique T1656" transform="translate(0, 189.33333333333334)"><rect class="cell" height="47.333333333333336" width="130.75" fill="#e60d0d" stroke="#6B7279"/><polygon class="sidebar" transform="translate(0, 47.333333333333336)" points="0,0 12,0 12,0" fill="#6B7279" visibility="hidden"/><text font-size="9.888194444444444" fill="white"><tspan x="4" y="27.166666666666668">Impersonation</tspan></text></g><g class="technique T1036" transform="translate(0, 236.66666666666666)"><rect class="cell" height="47.333333333333336" width="130.75" fill="#e60d0d" stroke="#6B7279"/><polygon class="sidebar" transform="translate(0, 47.333333333333336)" points="0,0 12,0 12,12" fill="#6B7279" visibility="visible"/><text font-size="9.888194444444444" fill="white"><tspan x="4" y="27.166666666666668">Masquerading</tspan></text></g><g class="technique T1027" transform="translate(0, 378.6666666666667)"><rect class="cell" height="47.333333333333336" width="130.75" fill="#e60d0d" stroke="#6B7279"/><polygon class="sidebar" transform="translate(0, 47.333333333333336)" points="0,0 12,0 12,12" fill="#6B7279" visibility="visible"/><text font-size="9.888194444444444" fill="white"><tspan x="4" y="12.5">Obfuscated</tspan><tspan x="4" y="27.166666666666668">Files</tspan><tspan x="4" y="41.83333333333333">or Information</tspan></text></g><g class="technique T1055" transform="translate(0, 520.6666666666666)"><rect class="cell" height="47.333333333333336" width="130.75" fill="#e60d0d" stroke="#6B7279"/><polygon class="sidebar" transform="translate(0, 47.333333333333336)" points="0,0 12,0 12,12" fill="#6B7279" visibility="visible"/><text font-size="9.888194444444444" fill="white"><tspan x="4" y="19.916666666666668">Process</tspan><tspan x="4" y="34.41666666666667">Injection</tspan></text></g><g class="technique T1218" transform="translate(0, 615.3333333333334)"><rect class="cell" height="47.333333333333336" width="130.75" fill="#e60d0d" stroke="#6B7279"/><polygon class="sidebar" transform="translate(0, 47.333333333333336)" points="0,0 12,0 12,12" fill="#6B7279" visibility="visible"/><text font-size="9.888194444444444" fill="white"><tspan x="4" y="12.5">System</tspan><tspan x="4" y="27.166666666666668">Binary Proxy</tspan><tspan x="4" y="41.83333333333333">Execution</tspan></text></g></g><g class="subtechniques"><g class="subtechnique T1574.001" transform="translate(15, 142)"><rect class="cell" height="47.333333333333336" width="115.75" fill="#fdd0a2" stroke="#6B7279"/><rect class="cell" height="47.333333333333336" width="3" transform="translate(-3, 0)" fill="#6B7279" stroke="#6B7279"/><text font-size="9.888194444444444" fill="black"><tspan x="4" y="27.166666666666668">DLL</tspan></text></g><g class="subtechnique T1036.001" transform="translate(15, 284)"><rect class="cell" height="47.333333333333336" width="115.75" fill="#fdd0a2" stroke="#6B7279"/><rect class="cell" height="47.333333333333336" width="3" transform="translate(-3, 0)" fill="#6B7279" stroke="#6B7279"/><text font-size="9.888194444444444" fill="black"><tspan x="4" y="19.916666666666668">Invalid Code</tspan><tspan x="4" y="34.41666666666667">Signature</tspan></text></g><g class="subtechnique T1036.004" transform="translate(15, 331.3333333333333)"><rect class="cell" height="47.333333333333336" width="115.75" fill="#fdd0a2" stroke="#6B7279"/><rect class="cell" height="47.333333333333336" width="3" transform="translate(-3, 0)" fill="#6B7279" stroke="#6B7279"/><text font-size="9.888194444444444" fill="black"><tspan x="4" y="12.5">Masquerade</tspan><tspan x="4" y="27.166666666666668">Task</tspan><tspan x="4" y="41.83333333333333">or Service</tspan></text></g><g class="subtechnique T1027.007" transform="translate(15, 426)"><rect class="cell" height="47.333333333333336" width="115.75" fill="#fdd0a2" stroke="#6B7279"/><rect class="cell" height="47.333333333333336" width="3" transform="translate(-3, 0)" fill="#6B7279" stroke="#6B7279"/><text font-size="9.888194444444444" fill="black"><tspan x="4" y="19.916666666666668">Dynamic API</tspan><tspan x="4" y="34.41666666666667">Resolution</tspan></text></g><g class="subtechnique T1027.009" transform="translate(15, 473.3333333333333)"><rect class="cell" height="47.333333333333336" width="115.75" fill="#fdd0a2" stroke="#6B7279"/><rect class="cell" height="47.333333333333336" width="3" transform="translate(-3, 0)" fill="#6B7279" stroke="#6B7279"/><text font-size="9.888194444444444" fill="black"><tspan x="4" y="19.916666666666668">Embedded</tspan><tspan x="4" y="34.41666666666667">Payloads</tspan></text></g><g class="subtechnique T1055.001" transform="translate(15, 568)"><rect class="cell" height="47.333333333333336" width="115.75" fill="#fdd0a2" stroke="#6B7279"/><rect class="cell" height="47.333333333333336" width="3" transform="translate(-3, 0)" fill="#6B7279" stroke="#6B7279"/><text font-size="9.888194444444444" fill="black"><tspan x="4" y="12.5">Dynamic-link</tspan><tspan x="4" y="27.166666666666668">Library</tspan><tspan x="4" y="41.83333333333333">Injection</tspan></text></g><g class="subtechnique T1218.005" transform="translate(15, 662.6666666666666)"><rect class="cell" height="47.333333333333336" width="115.75" fill="#fdd0a2" stroke="#6B7279"/><rect class="cell" height="47.333333333333336" width="3" transform="translate(-3, 0)" fill="#6B7279" stroke="#6B7279"/><text font-size="9.888194444444444" fill="black"><tspan x="4" y="27.166666666666668">Mshta</tspan></text></g></g><g class="tactic-label"><text font-size="12" fill="black" font-weight="bold"><tspan text-anchor="middle" x="65.375" y="19.916666666666668">Defense</tspan><tspan text-anchor="middle" x="65.375" y="34.41666666666667">Evasion</tspan></text></g></g><g class="tactic discovery" transform="translate(653.75, 0)"><g class="techniques"><g class="technique T1033" transform="translate(0, 47.333333333333336)"><rect class="cell" height="47.333333333333336" width="130.75" fill="#e60d0d" stroke="#6B7279"/><polygon class="sidebar" transform="translate(0, 47.333333333333336)" points="0,0 12,0 12,0" fill="#6B7279" visibility="hidden"/><text font-size="9.888194444444444" fill="white"><tspan x="4" y="12.5">System</tspan><tspan x="4" y="27.166666666666668">Owner/User</tspan><tspan x="4" y="41.83333333333333">Discovery</tspan></text></g></g><g class="subtechniques"/><g class="tactic-label"><text font-size="12" fill="black" font-weight="bold"><tspan text-anchor="middle" x="65.375" y="27.166666666666668">Discovery</tspan></text></g></g><g class="tactic command-and-control" transform="translate(784.5, 0)"><g class="techniques"><g class="technique T1071" transform="translate(0, 47.333333333333336)"><rect class="cell" height="47.333333333333336" width="130.75" fill="#e60d0d" stroke="#6B7279"/><polygon class="sidebar" transform="translate(0, 47.333333333333336)" points="0,0 12,0 12,12" fill="#6B7279" visibility="visible"/><text font-size="9.888194444444444" fill="white"><tspan x="4" y="19.916666666666668">Application</tspan><tspan x="4" y="34.41666666666667">Layer Protocol</tspan></text></g><g class="technique T1001" transform="translate(0, 142)"><rect class="cell" height="47.333333333333336" width="130.75" fill="#e60d0d" stroke="#6B7279"/><polygon class="sidebar" transform="translate(0, 47.333333333333336)" points="0,0 12,0 12,12" fill="#6B7279" visibility="visible"/><text font-size="9.888194444444444" fill="white"><tspan x="4" y="19.916666666666668">Data</tspan><tspan x="4" y="34.41666666666667">Obfuscation</tspan></text></g><g class="technique T1573" transform="translate(0, 236.66666666666666)"><rect class="cell" height="47.333333333333336" width="130.75" fill="#e60d0d" stroke="#6B7279"/><polygon class="sidebar" transform="translate(0, 47.333333333333336)" points="0,0 12,0 12,12" fill="#6B7279" visibility="visible"/><text font-size="9.888194444444444" fill="white"><tspan x="4" y="19.916666666666668">Encrypted</tspan><tspan x="4" y="34.41666666666667">Channel</tspan></text></g></g><g class="subtechniques"><g class="subtechnique T1071.001" transform="translate(15, 94.66666666666667)"><rect class="cell" height="47.333333333333336" width="115.75" fill="#fdd0a2" stroke="#6B7279"/><rect class="cell" height="47.333333333333336" width="3" transform="translate(-3, 0)" fill="#6B7279" stroke="#6B7279"/><text font-size="9.888194444444444" fill="black"><tspan x="4" y="27.166666666666668">Web Protocols</tspan></text></g><g class="subtechnique T1001.001" transform="translate(15, 189.33333333333334)"><rect class="cell" height="47.333333333333336" width="115.75" fill="#fdd0a2" stroke="#6B7279"/><rect class="cell" height="47.333333333333336" width="3" transform="translate(-3, 0)" fill="#6B7279" stroke="#6B7279"/><text font-size="9.888194444444444" fill="black"><tspan x="4" y="27.166666666666668">Junk Data</tspan></text></g><g class="subtechnique T1573.001" transform="translate(15, 284)"><rect class="cell" height="47.333333333333336" width="115.75" fill="#fdd0a2" stroke="#6B7279"/><rect class="cell" height="47.333333333333336" width="3" transform="translate(-3, 0)" fill="#6B7279" stroke="#6B7279"/><text font-size="9.888194444444444" fill="black"><tspan x="4" y="19.916666666666668">Symmetric</tspan><tspan x="4" y="34.41666666666667">Cryptography</tspan></text></g></g><g class="tactic-label"><text font-size="12" fill="black" font-weight="bold"><tspan text-anchor="middle" x="65.375" y="19.916666666666668">Command</tspan><tspan text-anchor="middle" x="65.375" y="34.41666666666667">and Control</tspan></text></g></g><g class="tactic exfiltration" transform="translate(915.25, 0)"><g class="techniques"><g class="technique T1041" transform="translate(0, 47.333333333333336)"><rect class="cell" height="47.333333333333336" width="130.75" fill="#e60d0d" stroke="#6B7279"/><polygon class="sidebar" transform="translate(0, 47.333333333333336)" points="0,0 12,0 12,0" fill="#6B7279" visibility="hidden"/><text font-size="9.888194444444444" fill="white"><tspan x="4" y="12.5">Exfiltration</tspan><tspan x="4" y="27.166666666666668">Over</tspan><tspan x="4" y="41.83333333333333">C2 Channel</tspan></text></g></g><g class="subtechniques"/><g class="tactic-label"><text font-size="12" fill="black" font-weight="bold"><tspan text-anchor="middle" x="65.375" y="27.166666666666668">Exfiltration</tspan></text></g></g></g></g></g></svg>